<?xml version="1.0" encoding="utf-8"?>
<!-- Generator: Adobe Illustrator 24.3.0, SVG Export Plug-In . SVG Version: 6.00 Build 0)  -->
<svg version="1.1" id="Layer_1" xmlns="http://www.w3.org/2000/svg" xmlns:xlink="http://www.w3.org/1999/xlink" x="0px" y="0px"
	 viewBox="0 0 1920 1080" style="enable-background:new 0 0 1920 1080;" xml:space="preserve">
<g id="Layer_2_1_">
</g>
<path style="fill:#945601;stroke:#382C07;stroke-width:4;stroke-miterlimit:10;" d="M-8.8,2.6c-13.3,5.3-19,22.9-13,34
	c7.5,13.9,32.5,15.8,42,3c6.5-8.8,5.2-23.5-4-32C9.7,1.5-0.3-0.8-8.8,2.6z"/>
<path style="fill:#945601;stroke:#382C07;stroke-width:4;stroke-miterlimit:10;" d="M15.5-15.4c-13.3,5.3-19,22.9-13,34
	c7.5,13.9,32.5,15.8,42,3c6.5-8.8,5.2-23.5-4-32C33.9-16.4,24-18.8,15.5-15.4z"/>
<path style="fill:#945601;stroke:#382C07;stroke-width:4;stroke-miterlimit:10;" d="M-8.8-25.8c-13.3,5.3-19,22.9-13,34
	c7.5,13.9,32.5,15.8,42,3c6.5-8.8,5.2-23.5-4-32C9.7-26.8-0.3-29.2-8.8-25.8z"/>
</svg>
