<?xml version="1.0" encoding="utf-8"?>
<!-- Generator: Adobe Illustrator 24.3.0, SVG Export Plug-In . SVG Version: 6.00 Build 0)  -->
<svg version="1.1" id="Layer_1" xmlns="http://www.w3.org/2000/svg" xmlns:xlink="http://www.w3.org/1999/xlink" x="0px" y="0px"
	 viewBox="0 0 1920 1080" style="enable-background:new 0 0 1920 1080;" xml:space="preserve">
<style type="text/css">
	.st0{fill:#009245;stroke:#0B562D;stroke-width:4;stroke-miterlimit:10;}
	.st1{fill:#00B300;stroke:#0C510C;stroke-width:4;stroke-miterlimit:10;}
	.st2{fill:#00B300;stroke:#0D540D;stroke-width:4;stroke-miterlimit:10;}
	.st3{fill:#009C00;stroke:#124912;stroke-width:4;stroke-miterlimit:10;}
	.st4{fill:#00B401;stroke:#0B562D;stroke-width:4;stroke-miterlimit:10;}
</style>
<g id="Layer_1_1_">
	<path class="st0" d="M316.7,163.1l24.5,51.3l28.3-10L343.1,222l41,61.3h29.1l-19.9,12.3l15.3,33.7l12.3-9.2l-6.1,18.4l24.5,43.7
		v16.3c0,0,31.4,17.4,33.7,9c2.3-8.4,2.3-8.4,2.3-8.4v-51.3l-18.4-65.9L427,230.5l-37.5-34.1L316.7,163.1z"/>
	<polygon class="st1" points="308.3,153 366.5,137.1 437.8,137.1 491.4,153 548,191.5 594,248.9 612.4,271.9 584,283.4 541.2,257.3 
		520.5,252.7 516.6,226.7 509,245.1 475.3,229 480.6,201.4 460.3,222.8 387.2,189.2 390.3,163.1 377.2,180.7 	"/>
	<polygon class="st2" points="316.7,144.7 401.8,120.2 408.6,89.6 419.4,117.1 460.3,111.8 467.6,89.6 475.3,106.4 533.5,94.9 
		533.5,81.1 545.8,90.3 561.1,81.1 496.7,44.4 424,40.5 357.3,76.5 304.2,130.9 	"/>
	<path class="st3" d="M316.7,111.8l-30.6-45.2l-45.2-39.8l-56.7-23l-57.4,12.3l14.6,15.3L152,26v14.5c0,0,32.2,37.5,42.1,23.7
		c10-13.8,10-13.8,10-13.8l-0.8,23l37.5,19.1l8.4-20.7l0.8,26.8l48.3,30.6L316.7,111.8z"/>
	<path class="st4" d="M297.2,153l11.5-8.3l-62-41.4l-78.1-29.9H98.8L26,113.2L0,137.1l30.6,7.7l7.7-15.3l2.3,15.3
		c0,0,60.5,13.8,64.3,0s3.8-13.8,3.8-13.8l0.8-9.2l6.1,23l52.9-3.1l6.8-28.4l10.7,31.5L297.2,153z"/>
	<polygon class="st0" points="299.1,163.1 243.2,196.4 229.2,173.1 233.2,200.6 159.7,240.5 142.9,222.1 148.2,245.1 113.8,265.7 
		106.1,247.4 106.1,269.6 41,305.6 9.6,295.6 47.1,234.3 97.7,186.1 164.3,153 185.8,144.7 	"/>
</g>
<g id="Layer_2_1_">
</g>
</svg>
