<?xml version="1.0" encoding="utf-8"?>
<!-- Generator: Adobe Illustrator 24.3.0, SVG Export Plug-In . SVG Version: 6.00 Build 0)  -->
<svg version="1.1" id="Layer_1" xmlns="http://www.w3.org/2000/svg" xmlns:xlink="http://www.w3.org/1999/xlink" x="0px" y="0px"
	 viewBox="0 0 1920 1080" style="enable-background:new 0 0 1920 1080;" xml:space="preserve">
<style type="text/css">
	.st0{fill:#945601;stroke:#382C07;stroke-width:4;stroke-miterlimit:10;}
</style>
<g id="Layer_1_1_">
	<path class="st0" d="M316.7,111.8c-19.4,31.4-38.7,62.8-58.1,94.2v6.8l-21.9,13.7c-0.9,3.2-1.8,6.4-2.7,9.6
		c-6.4,8.2-12.8,16.4-19.2,24.7c-1.4,4.1-2.7,8.2-4.1,12.3c-5.5,11.9-11,23.7-16.4,35.6c1.4,5,2.7,10.1,4.1,15.1
		c-4.5,13.2-9.1,26.5-13.7,39.7c1.4,2.7,2.7,5.5,4.1,8.2c-3.2,13.7-6.4,27.4-9.6,41.1c1.8,3.2,3.6,6.4,5.5,9.6
		c-1.8,13.2-3.6,26.5-5.5,39.7c0.9,3.7,1.8,7.3,2.7,11c-4.6,22.4-9.1,44.8-13.7,67.1c5.1,3.8,10.3,7.6,15.4,11.4
		c-1.5,16.3-3,32.6-4.5,48.9l104.1-16.4l-16.4-58.9l6.9-1.4l-11-49.3l6.9-8.2l-15.1-42.5l9.6-6.8l-9.6-53.4
		c3.2-15.1,6.4-30.1,9.6-45.2l5.5-46.6l13.7-26c20.9-40.8,41.7-81.6,62.6-122.5C336.1,119.5,326.4,115.6,316.7,111.8z"/>
</g>
<g id="Layer_2_1_">
</g>
</svg>
